<svg xmlns="http://www.w3.org/2000/svg" xmlns:xlink="http://www.w3.org/1999/xlink" width="500" zoomAndPan="magnify" viewBox="0 0 375 225" height="300" preserveAspectRatio="xMidYMid meet" version="1.0"><defs><g/></defs><g fill="#000000" fill-opacity="1"><g transform="translate(9.309797, 114.477234)"><g><path d="M 3 0 L 3 -30.90625 L 27.375 -30.90625 L 27.375 -24.46875 L 11.0625 -24.46875 L 11.0625 -18.6875 L 25.78125 -18.6875 L 25.78125 -12.296875 L 11.0625 -12.25 L 11.0625 -6.4375 L 27.8125 -6.4375 L 27.8125 0 Z M 3 0 "/></g></g></g><g fill="#000000" fill-opacity="1"><g transform="translate(39.058797, 114.477234)"><g><path d="M 24.15625 -12.296875 L 24.109375 -30.90625 L 31.609375 -30.90625 L 31.609375 0 L 24.546875 0 L 10.53125 -18.46875 L 10.53125 0 L 3 0 L 3 -30.90625 L 10.09375 -30.90625 Z M 24.15625 -12.296875 "/></g></g></g><g fill="#000000" fill-opacity="1"><g transform="translate(73.699857, 114.477234)"><g><path d="M 24.28125 -21.59375 C 22.632812 -22.5625 20.878906 -23.351562 19.015625 -23.96875 C 17.148438 -24.59375 15.585938 -24.90625 14.328125 -24.90625 C 13.328125 -24.90625 12.539062 -24.71875 11.96875 -24.34375 C 11.394531 -23.976562 11.109375 -23.445312 11.109375 -22.75 C 11.109375 -22.070312 11.359375 -21.503906 11.859375 -21.046875 C 12.359375 -20.585938 12.972656 -20.21875 13.703125 -19.9375 C 14.441406 -19.664062 15.53125 -19.304688 16.96875 -18.859375 C 19.113281 -18.242188 20.882812 -17.628906 22.28125 -17.015625 C 23.675781 -16.398438 24.875 -15.453125 25.875 -14.171875 C 26.875 -12.890625 27.375 -11.222656 27.375 -9.171875 C 27.375 -7.109375 26.828125 -5.347656 25.734375 -3.890625 C 24.648438 -2.441406 23.160156 -1.347656 21.265625 -0.609375 C 19.367188 0.117188 17.257812 0.484375 14.9375 0.484375 C 12.382812 0.484375 9.835938 0.0351562 7.296875 -0.859375 C 4.753906 -1.753906 2.554688 -2.984375 0.703125 -4.546875 L 3.828125 -10.84375 C 5.390625 -9.457031 7.234375 -8.320312 9.359375 -7.4375 C 11.492188 -6.5625 13.382812 -6.125 15.03125 -6.125 C 16.238281 -6.125 17.1875 -6.34375 17.875 -6.78125 C 18.5625 -7.226562 18.90625 -7.878906 18.90625 -8.734375 C 18.90625 -9.429688 18.644531 -10.015625 18.125 -10.484375 C 17.613281 -10.960938 16.96875 -11.335938 16.1875 -11.609375 C 15.414062 -11.890625 14.328125 -12.222656 12.921875 -12.609375 C 10.796875 -13.191406 9.039062 -13.785156 7.65625 -14.390625 C 6.28125 -14.992188 5.097656 -15.90625 4.109375 -17.125 C 3.128906 -18.34375 2.640625 -19.96875 2.640625 -22 C 2.640625 -23.90625 3.144531 -25.578125 4.15625 -27.015625 C 5.175781 -28.460938 6.617188 -29.570312 8.484375 -30.34375 C 10.347656 -31.125 12.515625 -31.515625 14.984375 -31.515625 C 17.222656 -31.515625 19.425781 -31.195312 21.59375 -30.5625 C 23.769531 -29.9375 25.679688 -29.09375 27.328125 -28.03125 Z M 24.28125 -21.59375 "/></g></g></g><g fill="#000000" fill-opacity="1"><g transform="translate(102.038527, 114.477234)"><g><path d="M 34.296875 0 L 25.703125 0 L 23.578125 -5.46875 L 10.21875 -5.46875 L 8.0625 0 L -0.21875 0 L 13.046875 -30.90625 L 21.328125 -30.90625 Z M 16.96875 -22.65625 L 12.65625 -11.640625 L 21.203125 -11.640625 Z M 16.96875 -22.65625 "/></g></g></g><g fill="#000000" fill-opacity="1"><g transform="translate(136.10664, 114.477234)"><g><path d="M 3 0 L 3 -30.90625 L 11.765625 -30.90625 L 20.71875 -12.828125 L 29.625 -30.90625 L 38.390625 -30.90625 L 38.390625 0 L 31.25 0 L 31.203125 -19.578125 L 23.3125 -3.078125 L 18.109375 -3.078125 L 10.1875 -19.578125 L 10.1875 0 Z M 3 0 "/></g></g></g><g fill="#000000" fill-opacity="1"><g transform="translate(177.49081, 114.477234)"><g><path d="M 17.671875 -30.90625 C 19.992188 -30.90625 22.015625 -30.585938 23.734375 -29.953125 C 25.453125 -29.316406 26.78125 -28.410156 27.71875 -27.234375 C 28.664062 -26.066406 29.140625 -24.6875 29.140625 -23.09375 C 29.140625 -21.476562 28.660156 -20.066406 27.703125 -18.859375 C 26.742188 -17.660156 25.441406 -16.835938 23.796875 -16.390625 C 25.765625 -16.015625 27.316406 -15.117188 28.453125 -13.703125 C 29.585938 -12.296875 30.15625 -10.59375 30.15625 -8.59375 C 30.15625 -6.863281 29.664062 -5.34375 28.6875 -4.03125 C 27.71875 -2.726562 26.335938 -1.726562 24.546875 -1.03125 C 22.753906 -0.34375 20.65625 0 18.25 0 L 3 0 L 3 -30.90625 Z M 17.234375 -18.59375 C 18.347656 -18.59375 19.226562 -18.863281 19.875 -19.40625 C 20.519531 -19.957031 20.84375 -20.71875 20.84375 -21.6875 C 20.84375 -22.625 20.519531 -23.347656 19.875 -23.859375 C 19.226562 -24.378906 18.347656 -24.625 17.234375 -24.59375 L 11.0625 -24.59375 L 11.0625 -18.59375 Z M 17.234375 -6.265625 C 18.640625 -6.265625 19.753906 -6.554688 20.578125 -7.140625 C 21.398438 -7.722656 21.8125 -8.546875 21.8125 -9.609375 C 21.8125 -10.578125 21.398438 -11.347656 20.578125 -11.921875 C 19.753906 -12.492188 18.640625 -12.765625 17.234375 -12.734375 L 11.0625 -12.734375 L 11.0625 -6.265625 Z M 17.234375 -6.265625 "/></g></g></g><g fill="#000000" fill-opacity="1"><g transform="translate(209.046787, 114.477234)"><g><path d="M 3 0 L 3 -30.90625 L 11.0625 -30.90625 L 11.0625 -6.875 L 24.15625 -6.875 L 24.15625 0 Z M 3 0 "/></g></g></g><g fill="#000000" fill-opacity="1"><g transform="translate(233.991878, 114.477234)"><g><path d="M 34.296875 0 L 25.703125 0 L 23.578125 -5.46875 L 10.21875 -5.46875 L 8.0625 0 L -0.21875 0 L 13.046875 -30.90625 L 21.328125 -30.90625 Z M 16.96875 -22.65625 L 12.65625 -11.640625 L 21.203125 -11.640625 Z M 16.96875 -22.65625 "/></g></g></g><g fill="#000000" fill-opacity="1"><g transform="translate(268.059978, 114.477234)"><g><path d="M 16.3125 -30.90625 C 19.539062 -30.90625 22.394531 -30.253906 24.875 -28.953125 C 27.363281 -27.660156 29.296875 -25.847656 30.671875 -23.515625 C 32.054688 -21.179688 32.75 -18.5 32.75 -15.46875 C 32.75 -12.445312 32.050781 -9.757812 30.65625 -7.40625 C 29.257812 -5.050781 27.289062 -3.226562 24.75 -1.9375 C 22.207031 -0.644531 19.289062 0 16 0 L 3 0 L 3 -30.90625 Z M 16.53125 -6.53125 C 18.082031 -6.53125 19.460938 -6.894531 20.671875 -7.625 C 21.878906 -8.363281 22.816406 -9.40625 23.484375 -10.75 C 24.160156 -12.101562 24.5 -13.648438 24.5 -15.390625 C 24.5 -17.148438 24.140625 -18.703125 23.421875 -20.046875 C 22.703125 -21.398438 21.710938 -22.453125 20.453125 -23.203125 C 19.191406 -23.953125 17.75 -24.328125 16.125 -24.328125 L 11.0625 -24.328125 L 11.0625 -6.53125 Z M 16.53125 -6.53125 "/></g></g></g><g fill="#000000" fill-opacity="1"><g transform="translate(301.290682, 114.477234)"><g><path d="M 17.71875 -31.390625 C 20.863281 -31.390625 23.707031 -30.695312 26.25 -29.3125 C 28.789062 -27.925781 30.785156 -26.03125 32.234375 -23.625 C 33.691406 -21.21875 34.421875 -18.515625 34.421875 -15.515625 C 34.421875 -12.484375 33.691406 -9.75 32.234375 -7.3125 C 30.785156 -4.875 28.789062 -2.945312 26.25 -1.53125 C 23.707031 -0.125 20.863281 0.578125 17.71875 0.578125 C 14.570312 0.578125 11.726562 -0.117188 9.1875 -1.515625 C 6.644531 -2.910156 4.644531 -4.832031 3.1875 -7.28125 C 1.738281 -9.738281 1.015625 -12.484375 1.015625 -15.515625 C 1.015625 -18.515625 1.738281 -21.21875 3.1875 -23.625 C 4.644531 -26.03125 6.644531 -27.925781 9.1875 -29.3125 C 11.726562 -30.695312 14.570312 -31.390625 17.71875 -31.390625 Z M 17.8125 -24.546875 C 16.28125 -24.546875 14.859375 -24.148438 13.546875 -23.359375 C 12.242188 -22.566406 11.207031 -21.472656 10.4375 -20.078125 C 9.675781 -18.679688 9.296875 -17.144531 9.296875 -15.46875 C 9.296875 -13.769531 9.6875 -12.222656 10.46875 -10.828125 C 11.25 -9.429688 12.285156 -8.328125 13.578125 -7.515625 C 14.867188 -6.703125 16.28125 -6.296875 17.8125 -6.296875 C 19.332031 -6.296875 20.734375 -6.703125 22.015625 -7.515625 C 23.296875 -8.328125 24.300781 -9.429688 25.03125 -10.828125 C 25.769531 -12.222656 26.140625 -13.769531 26.140625 -15.46875 C 26.140625 -17.144531 25.769531 -18.679688 25.03125 -20.078125 C 24.300781 -21.472656 23.296875 -22.566406 22.015625 -23.359375 C 20.734375 -24.148438 19.332031 -24.546875 17.8125 -24.546875 Z M 17.8125 -24.546875 "/></g></g></g><g fill="#000000" fill-opacity="1"><g transform="translate(336.725049, 114.477234)"><g><path d="M 30.671875 0 L 21.546875 0 L 17.0625 -8.546875 L 11.0625 -8.546875 L 11.0625 0 L 3 0 L 3 -30.90625 L 16.875 -30.90625 C 20.96875 -30.90625 24.132812 -29.957031 26.375 -28.0625 C 28.625 -26.164062 29.75 -23.5 29.75 -20.0625 C 29.75 -17.738281 29.28125 -15.726562 28.34375 -14.03125 C 27.40625 -12.34375 26.039062 -11.03125 24.25 -10.09375 Z M 11.0625 -24.46875 L 11.0625 -14.984375 L 16.921875 -14.984375 C 18.566406 -14.984375 19.835938 -15.394531 20.734375 -16.21875 C 21.628906 -17.039062 22.078125 -18.234375 22.078125 -19.796875 C 22.078125 -21.285156 21.628906 -22.4375 20.734375 -23.25 C 19.835938 -24.0625 18.566406 -24.46875 16.921875 -24.46875 Z M 11.0625 -24.46875 "/></g></g></g><g fill="#000000" fill-opacity="1"><g transform="translate(192.564536, 152.222112)"><g><path d="M 19.921875 -6.625 L 19.921875 -23.921875 L 23.890625 -23.921875 L 23.890625 0 L 19.921875 0 L 7.171875 -17.21875 L 7.171875 0 L 3.140625 0 L 3.140625 -23.921875 L 7.109375 -23.921875 Z M 19.921875 -6.625 "/></g></g></g><g fill="#000000" fill-opacity="1"><g transform="translate(219.620929, 152.222112)"><g><path d="M 25.1875 0 L 20.875 0 L 18.59375 -5.40625 L 6.53125 -5.40625 L 4.234375 0 L 0.03125 0 L 10.59375 -23.921875 L 14.734375 -23.921875 Z M 12.546875 -19.609375 L 8.03125 -8.984375 L 17.046875 -8.984375 Z M 12.546875 -19.609375 "/></g></g></g><g fill="#000000" fill-opacity="1"><g transform="translate(244.62752, 152.222112)"><g><path d="M 17.703125 -18.21875 C 16.472656 -18.96875 15.242188 -19.523438 14.015625 -19.890625 C 12.785156 -20.253906 11.679688 -20.4375 10.703125 -20.4375 C 9.515625 -20.4375 8.566406 -20.210938 7.859375 -19.765625 C 7.148438 -19.328125 6.796875 -18.695312 6.796875 -17.875 C 6.796875 -17.144531 7.023438 -16.539062 7.484375 -16.0625 C 7.941406 -15.582031 8.507812 -15.203125 9.1875 -14.921875 C 9.875 -14.648438 10.832031 -14.320312 12.0625 -13.9375 C 13.675781 -13.4375 14.988281 -12.953125 16 -12.484375 C 17.019531 -12.023438 17.890625 -11.332031 18.609375 -10.40625 C 19.328125 -9.476562 19.6875 -8.265625 19.6875 -6.765625 C 19.6875 -5.347656 19.300781 -4.109375 18.53125 -3.046875 C 17.769531 -1.992188 16.707031 -1.179688 15.34375 -0.609375 C 13.976562 -0.046875 12.414062 0.234375 10.65625 0.234375 C 8.8125 0.234375 7.035156 -0.101562 5.328125 -0.78125 C 3.617188 -1.46875 2.140625 -2.40625 0.890625 -3.59375 L 2.625 -7.078125 C 3.832031 -5.960938 5.160156 -5.085938 6.609375 -4.453125 C 8.054688 -3.828125 9.429688 -3.515625 10.734375 -3.515625 C 12.117188 -3.515625 13.207031 -3.78125 14 -4.3125 C 14.800781 -4.851562 15.203125 -5.59375 15.203125 -6.53125 C 15.203125 -7.28125 14.96875 -7.894531 14.5 -8.375 C 14.039062 -8.851562 13.457031 -9.234375 12.75 -9.515625 C 12.039062 -9.796875 11.082031 -10.117188 9.875 -10.484375 C 8.238281 -10.960938 6.921875 -11.429688 5.921875 -11.890625 C 4.929688 -12.347656 4.078125 -13.03125 3.359375 -13.9375 C 2.648438 -14.851562 2.296875 -16.050781 2.296875 -17.53125 C 2.296875 -18.875 2.65625 -20.050781 3.375 -21.0625 C 4.101562 -22.082031 5.128906 -22.867188 6.453125 -23.421875 C 7.773438 -23.984375 9.289062 -24.265625 11 -24.265625 C 12.507812 -24.265625 13.988281 -24.035156 15.4375 -23.578125 C 16.894531 -23.117188 18.207031 -22.515625 19.375 -21.765625 Z M 17.703125 -18.21875 "/></g></g></g><g fill="#000000" fill-opacity="1"><g transform="translate(265.876349, 152.222112)"><g><path d="M 3.140625 0 L 3.140625 -23.921875 L 7.828125 -23.921875 L 16.09375 -7.921875 L 24.296875 -23.921875 L 28.984375 -23.921875 L 28.984375 0 L 25.25 0 L 25.21875 -17.9375 L 17.359375 -2.5 L 14.796875 -2.5 L 6.875 -17.9375 L 6.875 0 Z M 3.140625 0 "/></g></g></g><g fill="#000000" fill-opacity="1"><g transform="translate(297.98873, 152.222112)"><g/></g></g><g fill="#000000" fill-opacity="1"><g transform="translate(307.212506, 152.222112)"><g><path d="M 6.90625 -9.328125 L 0.921875 -18.171875 L 5.4375 -18.171875 L 9.5 -11.953125 L 13.640625 -18.171875 L 17.9375 -18.171875 L 12.09375 -9.328125 L 18.34375 0 L 13.84375 0 L 9.5 -6.65625 L 4.859375 0 L 0.484375 0 Z M 6.90625 -9.328125 "/></g></g></g><g fill="#000000" fill-opacity="1"><g transform="translate(326.138318, 152.222112)"><g><path d="M 10.859375 -24.09375 C 13.328125 -24.09375 15.269531 -23.539062 16.6875 -22.4375 C 18.113281 -21.332031 18.828125 -19.8125 18.828125 -17.875 C 18.828125 -16.726562 18.519531 -15.710938 17.90625 -14.828125 C 17.289062 -13.941406 16.4375 -13.257812 15.34375 -12.78125 C 16.800781 -12.28125 17.945312 -11.492188 18.78125 -10.421875 C 19.613281 -9.347656 20.03125 -8.109375 20.03125 -6.703125 C 20.03125 -4.578125 19.207031 -2.898438 17.5625 -1.671875 C 15.925781 -0.441406 13.707031 0.171875 10.90625 0.171875 C 8.101562 0.171875 5.878906 -0.4375 4.234375 -1.65625 C 2.597656 -2.875 1.78125 -4.53125 1.78125 -6.625 C 1.78125 -8.0625 2.210938 -9.320312 3.078125 -10.40625 C 3.941406 -11.488281 5.125 -12.28125 6.625 -12.78125 C 5.46875 -13.300781 4.5625 -14.015625 3.90625 -14.921875 C 3.257812 -15.835938 2.9375 -16.878906 2.9375 -18.046875 C 2.9375 -19.910156 3.644531 -21.382812 5.0625 -22.46875 C 6.488281 -23.550781 8.421875 -24.09375 10.859375 -24.09375 Z M 10.90625 -21.1875 C 9.46875 -21.1875 8.347656 -20.878906 7.546875 -20.265625 C 6.753906 -19.648438 6.359375 -18.785156 6.359375 -17.671875 C 6.359375 -16.554688 6.753906 -15.6875 7.546875 -15.0625 C 8.347656 -14.445312 9.46875 -14.140625 10.90625 -14.140625 C 12.332031 -14.140625 13.4375 -14.445312 14.21875 -15.0625 C 15.007812 -15.6875 15.40625 -16.554688 15.40625 -17.671875 C 15.40625 -18.785156 15.007812 -19.648438 14.21875 -20.265625 C 13.4375 -20.878906 12.332031 -21.1875 10.90625 -21.1875 Z M 10.859375 -11 C 9.179688 -11 7.878906 -10.65625 6.953125 -9.96875 C 6.023438 -9.289062 5.5625 -8.328125 5.5625 -7.078125 C 5.5625 -5.773438 6.03125 -4.769531 6.96875 -4.0625 C 7.90625 -3.351562 9.21875 -3 10.90625 -3 C 12.582031 -3 13.890625 -3.351562 14.828125 -4.0625 C 15.765625 -4.769531 16.234375 -5.765625 16.234375 -7.046875 C 16.234375 -8.296875 15.757812 -9.265625 14.8125 -9.953125 C 13.863281 -10.648438 12.546875 -11 10.859375 -11 Z M 10.859375 -11 "/></g></g></g><g fill="#000000" fill-opacity="1"><g transform="translate(347.762934, 152.222112)"><g><path d="M 17.765625 -19.234375 C 17.035156 -19.710938 16.195312 -20.082031 15.25 -20.34375 C 14.3125 -20.613281 13.382812 -20.75 12.46875 -20.75 C 10.21875 -20.75 8.519531 -19.96875 7.375 -18.40625 C 6.238281 -16.84375 5.71875 -14.726562 5.8125 -12.0625 C 6.445312 -13.175781 7.316406 -14.023438 8.421875 -14.609375 C 9.523438 -15.191406 10.832031 -15.484375 12.34375 -15.484375 C 14.726562 -15.484375 16.609375 -14.789062 17.984375 -13.40625 C 19.367188 -12.03125 20.0625 -10.171875 20.0625 -7.828125 C 20.0625 -6.210938 19.710938 -4.800781 19.015625 -3.59375 C 18.316406 -2.382812 17.328125 -1.453125 16.046875 -0.796875 C 14.773438 -0.148438 13.300781 0.171875 11.625 0.171875 C 9.613281 0.171875 7.878906 -0.285156 6.421875 -1.203125 C 4.960938 -2.128906 3.835938 -3.460938 3.046875 -5.203125 C 2.265625 -6.953125 1.875 -9.035156 1.875 -11.453125 C 1.875 -13.972656 2.296875 -16.191406 3.140625 -18.109375 C 3.984375 -20.023438 5.179688 -21.5 6.734375 -22.53125 C 8.285156 -23.570312 10.109375 -24.09375 12.203125 -24.09375 C 13.378906 -24.09375 14.617188 -23.925781 15.921875 -23.59375 C 17.222656 -23.257812 18.363281 -22.820312 19.34375 -22.28125 Z M 11.578125 -12.296875 C 10.003906 -12.296875 8.753906 -11.847656 7.828125 -10.953125 C 6.910156 -10.054688 6.453125 -8.957031 6.453125 -7.65625 C 6.453125 -6.925781 6.632812 -6.226562 7 -5.5625 C 7.363281 -4.90625 7.921875 -4.359375 8.671875 -3.921875 C 9.429688 -3.492188 10.34375 -3.28125 11.40625 -3.28125 C 12.894531 -3.28125 14.082031 -3.6875 14.96875 -4.5 C 15.851562 -5.320312 16.296875 -6.441406 16.296875 -7.859375 C 16.296875 -9.222656 15.875 -10.300781 15.03125 -11.09375 C 14.1875 -11.894531 13.035156 -12.296875 11.578125 -12.296875 Z M 11.578125 -12.296875 "/></g></g></g><g fill="#000000" fill-opacity="1"><g transform="translate(8.58317, 72.979478)"><g><path d="M 3.5625 0 L 3.5625 -27.109375 L 8.859375 -27.109375 L 18.234375 -8.984375 L 27.53125 -27.109375 L 32.828125 -27.109375 L 32.828125 0 L 28.609375 0 L 28.578125 -20.328125 L 19.671875 -2.828125 L 16.765625 -2.828125 L 7.78125 -20.328125 L 7.78125 0 Z M 3.5625 0 "/></g></g></g><g fill="#000000" fill-opacity="1"><g transform="translate(44.968703, 72.979478)"><g><path d="M 28.53125 0 L 23.65625 0 L 21.0625 -6.125 L 7.390625 -6.125 L 4.796875 0 L 0.03125 0 L 12 -27.109375 L 16.6875 -27.109375 Z M 14.203125 -22.21875 L 9.09375 -10.1875 L 19.328125 -10.1875 Z M 14.203125 -22.21875 "/></g></g></g><g fill="#000000" fill-opacity="1"><g transform="translate(73.535209, 72.979478)"><g><path d="M 22.578125 -7.515625 L 22.578125 -27.109375 L 27.0625 -27.109375 L 27.0625 0 L 22.578125 0 L 8.125 -19.515625 L 8.125 0 L 3.5625 0 L 3.5625 -27.109375 L 8.046875 -27.109375 Z M 22.578125 -7.515625 "/></g></g></g><g fill="#000000" fill-opacity="1"><g transform="translate(104.191958, 72.979478)"><g><path d="M 7.59375 -11.109375 C 7.59375 -8.835938 8.234375 -7.050781 9.515625 -5.75 C 10.804688 -4.445312 12.550781 -3.796875 14.75 -3.796875 C 16.914062 -3.796875 18.628906 -4.441406 19.890625 -5.734375 C 21.160156 -7.023438 21.796875 -8.816406 21.796875 -11.109375 L 21.796875 -27.109375 L 26.375 -27.109375 L 26.375 -11.109375 C 26.375 -8.765625 25.90625 -6.734375 24.96875 -5.015625 C 24.039062 -3.296875 22.695312 -1.972656 20.9375 -1.046875 C 19.1875 -0.117188 17.125 0.34375 14.75 0.34375 C 12.351562 0.34375 10.269531 -0.117188 8.5 -1.046875 C 6.726562 -1.972656 5.367188 -3.296875 4.421875 -5.015625 C 3.484375 -6.734375 3.015625 -8.765625 3.015625 -11.109375 L 3.015625 -27.109375 L 7.59375 -27.109375 Z M 7.59375 -11.109375 "/></g></g></g><g fill="#000000" fill-opacity="1"><g transform="translate(132.796837, 72.979478)"><g><path d="M 28.53125 0 L 23.65625 0 L 21.0625 -6.125 L 7.390625 -6.125 L 4.796875 0 L 0.03125 0 L 12 -27.109375 L 16.6875 -27.109375 Z M 14.203125 -22.21875 L 9.09375 -10.1875 L 19.328125 -10.1875 Z M 14.203125 -22.21875 "/></g></g></g><g fill="#000000" fill-opacity="1"><g transform="translate(161.363343, 72.979478)"><g><path d="M 3.5625 0 L 3.5625 -27.109375 L 8.125 -27.109375 L 8.125 -4.140625 L 19.859375 -4.140625 L 19.859375 0 Z M 3.5625 0 "/></g></g></g></svg>